<svg xmlns="http://www.w3.org/2000/svg" height="358.667" width="669.333"><path d="M404.57 73.99s-5.06-7.36 2.53-14.489c7.588-7.129 16.557-1.84 22.307-3.449 5.748-1.61 7.588-5.29 8.508-6.899.92-1.609.92-4.138.92-4.138s1.15 5.058.46 7.588c-.69 2.529-4.83 6.438-4.83 6.438s5.06 0 8.739-4.138c3.68-4.14 3.68-10.579 3.68-10.579s3.45 4.599 3.219 8.97c-.23 4.367-3.45 9.657-3.45 9.657s2.3-3.45 10.35-3.91c8.048-.46 10.808.92 15.177-.46 4.37-1.38 8.508-6.898 8.508-6.898s-.919 5.518-2.99 8.278c-2.069 2.76-4.138 4.83-6.209 5.979-2.069 1.15-3.449 1.15-3.449 1.15s8.51.69 11.959-1.38 6.438-7.818 6.438-7.818.23 4.83-2.069 8.968c-2.3 4.14-7.359 7.819-7.359 7.819s4.599.46 8.048-2.299c3.45-2.76 6.21-10.119 6.21-10.119s1.84 7.359.23 13.108c-1.61 5.75-4.83 11.728-6.209 13.108-1.38 1.38-3.91 2.759-3.91 2.759s8.509-2.759 11.498-7.588c2.99-4.83 2.99-13.799 2.99-13.799s2.53 8.739.69 14.028c-1.84 5.29-6.899 10.119-6.899 10.119s4.139-.23 7.359-4.139c3.22-3.909 3.679-9.66 3.679-9.66s2.3 9.43.92 15.41c-1.379 5.978-4.83 11.728-5.979 12.877-1.15 1.15-2.07 1.38-2.07 1.38s3.22 0 6.21-3.45c2.99-3.45 3.219-11.038 3.219-11.038s2.989 6.439.92 11.499c-2.07 5.058-4.139 7.588-5.29 8.278-1.149.69-3.909 1.38-3.909 1.38s11.728 1.61 21.387 1.61c9.658 0 23.226-2.3 29.896-1.38 6.668.92 11.957 3.909 14.717 5.518 2.76 1.611 4.6 3.22 4.6 3.22s2.299-2.989 9.657-2.76c7.36.231 13.339 5.06 19.548 8.51 6.208 3.449 9.428 4.829 14.487 3.218 5.06-1.609 6.67-6.438 6.67-6.438s.46 4.14-.69 6.438c-1.15 2.3-5.75 4.83-5.75 4.83s2.99.92 5.75-.92c2.76-1.839 2.299-5.748 2.299-5.748s2.989 4.369 1.84 7.358c-1.15 2.99-3.91 5.059-3.91 5.059s5.29.23 11.959 2.53c6.67 2.3 6.67 3.449 10.348 2.76 3.68-.69 5.979-4.37 5.979-4.37s-.23 3.91-1.379 6.439c-1.15 2.53-7.13 5.289-7.13 5.289s2.99 4.37 8.28 4.37c5.289 0 11.267-5.06 11.267-5.06s.691 3.91-1.149 7.589c-1.84 3.68-6.67 6.669-6.67 6.669s3.68.69 7.13-1.84c3.45-2.53 2.99-6.899 2.99-6.899s1.38 3.45.92 5.06c-.46 1.61-1.84 3.679-1.84 3.679s2.069 0 6.209 1.84c4.138 1.84 5.749 3.679 5.749 3.679s-5.06-2.53-8.74-2.299c-3.679.23-7.359 3.219-7.359 3.219s3.22-.23 9.43 2.3c6.209 2.529 7.589 9.429 7.589 9.429s-.23-4.83-9.2-6.67c-8.968-1.84-11.267-2.069-16.557-.69-5.288 1.38-11.268 2.07-16.787-.69-5.519-2.76-10.119-11.498-10.119-11.498s-6.898-1.379-12.648-6.439c-5.749-5.058-6.438-10.348-6.438-10.348s-8.279-2.07-14.718-8.509c-6.44-6.439-10.118-9.888-10.118-9.888s3.909 9.199 4.369 15.177c.46 5.98-1.84 12.648.69 18.168 2.529 5.519 6.669 6.668 8.738 10.119 2.07 3.45 2.3 7.588 3.45 9.657 1.15 2.071 9.658 11.268 12.647 13.108 2.991 1.84 5.519 1.38 5.979 2.3.46.92.69 3.22.69 3.22s1.61-1.38 3.22-.69 12.418 8.509 10.578 9.658c-1.839 1.15-10.348 1.61-12.417 1.38-2.071-.23-7.359-.23-9.199-1.84-1.84-1.609-10.579-12.877-13.108-15.637-2.53-2.76-20.467-18.168-23.916-20.927-3.45-2.76-14.259-7.818-14.259-7.818s-10.348 6.208-13.108 10.808c-2.758 4.598-3.909 12.877-5.978 14.257-2.07 1.38-10.119 7.36-14.488 10.81-4.37 3.449-8.739 10.117-9.888 12.417-1.151 2.3-1.84 5.06-3.22 5.289-1.38.23-3.679-.46-3.679-.46l-.69 3.45s-4.83 3.22-8.969 3.449c-4.14.23-6.898-1.38-6.44-2.76.46-1.38 5.75-6.898 7.13-8.508 1.38-1.61 3.22-2.99 5.52-5.29 2.298-2.298 15.866-14.488 17.477-16.326 1.61-1.84 2.759-6.67 4.139-11.73 1.38-5.058 1.38-17.017 1.38-17.017s-18.627 0-23.916.23c-5.29.23-8.74 1.38-8.74 1.38l-2.068 1.84-1.842 17.707s-.229 6.439-.689 10.348c-.46 3.91-1.61 7.59-1.61 7.59s-1.149 10.808-.92 14.028c.231 3.218 1.15 8.048.691 8.968-.46.92-2.3 1.84-2.3 1.84l-1.84-.69s.231 3.22-.92 3.909c-1.149.69-14.717 1.84-15.177-.23-.46-2.07 3.679-6.209 5.75-7.818 2.069-1.61 3.449-2.53 5.058-4.37 1.61-1.84.69-11.957.69-13.568 0-1.61-1.61-8.279-1.84-11.268-.23-2.99-.23-9.199-.23-9.199s-1.379-7.818-2.3-10.578c-.92-2.759-4.599-7.128-4.599-7.128l-10.348-3.45s-4.829 3.91-7.358 4.368c-2.531.46-29.896-9.428-29.896-9.428s-.92 1.61-1.61 2.53c-.69.92-1.15 1.84-1.15 1.84l2.76 8.278s1.38.46 2.3 0l1.838-.92s.691 1.61.691 2.76c0 0 1.38-.23 2.3.231.92.459 10.808 13.567 7.359 14.027-3.45.46-11.039-3.679-12.879-3.679-1.84 0-7.128-1.38-8.508-3.22-1.38-1.84-1.38-9.428-2.3-12.648-.92-3.22-2.76-8.279-2.3-11.039.46-2.758 2.07-5.518 5.29-6.898s10.807-.92 12.878-.691c2.07.23 8.968-.23 8.968-.23s-3.679-8.278-3.22-15.407c.46-7.128 4.37-12.418 4.14-16.327-.23-3.91-4.83-17.937-4.83-17.937s-2.989 1.84-5.289 2.529c-2.3.69-5.518 1.38-5.518 1.38l-5.75 5.29s-.689 3.68-1.609 4.829c-.92 1.149-8.28 1.38-9.199.92-.92-.46-3.449-2.07-4.14-2.99-.689-.92-1.149-1.61-2.069-2.76-.92-1.149-1.61-1.61-1.38-2.76.23-1.149 8.05-21.156 8.05-21.156s-.231-4.829.458-7.129c.69-2.3 4.83-8.279 4.83-8.279" fill="#444142" fill-rule="evenodd"/><path d="M78.795 326.642v-61.8h-6.272v11.013c-6.73-7.954-15.144-11.932-25.24-11.932-9.178 0-16.929 3.162-23.252 9.484-6.22 6.222-9.331 13.921-9.331 23.1 0 9.177 3.161 16.928 9.484 23.25 6.221 6.222 13.92 9.332 23.099 9.332 10.198 0 18.611-3.977 25.24-11.932v9.332c0 7.852-2.192 13.97-6.578 18.356-4.283 4.385-10.35 6.578-18.203 6.578-5.813 0-10.81-.969-14.991-2.907-5.304-2.447-8.516-6.17-9.637-11.167h-6.272c3.365 13.564 13.665 20.346 30.9 20.346 9.28 0 16.776-2.856 22.487-8.567 5.71-5.71 8.566-13.206 8.566-22.486zm-5.048-30.136c0 7.343-2.6 13.615-7.802 18.815-5.099 5.1-11.32 7.65-18.662 7.65-7.24 0-13.462-2.601-18.663-7.802-5.2-5.201-7.801-11.422-7.801-18.663 0-7.342 2.6-13.614 7.801-18.815 5.1-5.1 11.32-7.649 18.663-7.649 7.24 0 13.461 2.6 18.662 7.802 5.201 5.2 7.802 11.422 7.802 18.662" fill="#6086a1" fill-rule="evenodd"/><path d="M78.795 326.642v-61.8h-6.272v11.013c-6.73-7.954-15.144-11.932-25.24-11.932-9.178 0-16.929 3.162-23.252 9.484-6.22 6.222-9.331 13.921-9.331 23.1 0 9.177 3.161 16.928 9.484 23.25 6.221 6.222 13.92 9.332 23.099 9.332 10.198 0 18.611-3.977 25.24-11.932v9.332c0 7.852-2.192 13.97-6.578 18.356-4.283 4.385-10.35 6.578-18.203 6.578-5.813 0-10.81-.969-14.991-2.907-5.304-2.447-8.516-6.17-9.637-11.167h-6.272c3.365 13.564 13.665 20.346 30.9 20.346 9.28 0 16.776-2.856 22.487-8.567 5.71-5.71 8.566-13.206 8.566-22.486z" fill="none" stroke="#6086a1" stroke-width="1.55556111" stroke-miterlimit="3.864"/><path d="M73.747 296.506c0 7.343-2.6 13.615-7.802 18.815-5.099 5.1-11.32 7.65-18.662 7.65-7.24 0-13.462-2.601-18.663-7.802-5.2-5.201-7.801-11.422-7.801-18.663 0-7.342 2.6-13.614 7.801-18.815 5.1-5.1 11.32-7.649 18.663-7.649 7.24 0 13.461 2.6 18.662 7.802 5.201 5.2 7.802 11.422 7.802 18.662z" fill="none" stroke="#6086a1" stroke-width="1.55556111" stroke-miterlimit="3.864"/><path d="M156.779 328.018v-63.177h-6.272v11.014c-6.731-7.954-15.144-11.932-25.24-11.932-9.178 0-16.929 3.162-23.252 9.484-6.22 6.222-9.331 13.921-9.331 23.1 0 9.177 3.162 16.928 9.484 23.25 6.221 6.222 13.921 9.332 23.099 9.332 10.198 0 18.612-3.977 25.24-11.932v10.861zm-5.048-31.512c0 7.343-2.6 13.615-7.802 18.815-5.098 5.1-11.32 7.65-18.662 7.65-7.24 0-13.462-2.601-18.662-7.802-5.201-5.201-7.802-11.422-7.802-18.663 0-7.342 2.6-13.614 7.802-18.815 5.099-5.1 11.32-7.649 18.662-7.649 7.24 0 13.461 2.6 18.662 7.802 5.202 5.2 7.802 11.422 7.802 18.662" fill="#6086a1" fill-rule="evenodd"/><path d="M156.779 328.018v-63.177h-6.272v11.014c-6.731-7.954-15.144-11.932-25.24-11.932-9.178 0-16.929 3.162-23.252 9.484-6.22 6.222-9.331 13.921-9.331 23.1 0 9.177 3.162 16.928 9.484 23.25 6.221 6.222 13.921 9.332 23.099 9.332 10.198 0 18.612-3.977 25.24-11.932v10.861z" fill="none" stroke="#6086a1" stroke-width="1.55556111" stroke-miterlimit="3.864"/><path d="M151.73 296.506c0 7.343-2.6 13.615-7.8 18.815-5.1 5.1-11.32 7.65-18.663 7.65-7.24 0-13.462-2.601-18.662-7.802-5.201-5.201-7.802-11.422-7.802-18.663 0-7.342 2.6-13.614 7.802-18.815 5.099-5.1 11.32-7.649 18.662-7.649 7.24 0 13.461 2.6 18.662 7.802 5.202 5.2 7.802 11.422 7.802 18.662z" fill="none" stroke="#6086a1" stroke-width="1.55556111" stroke-miterlimit="3.864"/><path d="M224.208 328.018v-38.396c0-8.056-2.09-14.328-6.272-18.815-4.181-4.487-10.197-6.73-18.05-6.73-9.28 0-15.349 2.804-18.203 8.413v-7.649h-6.272v63.177h6.272v-38.396c0-6.016 1.58-10.758 4.741-14.226 3.06-3.467 7.547-5.2 13.461-5.2 12.034 0 18.051 6.679 18.051 20.038v37.784h6.272" fill="#6086a1"/><path d="M224.208 328.018v-38.396c0-8.056-2.09-14.328-6.272-18.815-4.181-4.487-10.197-6.73-18.05-6.73-9.28 0-15.349 2.804-18.203 8.413v-7.649h-6.272v63.177h6.272v-38.396c0-6.016 1.58-10.758 4.741-14.226 3.06-3.467 7.547-5.2 13.461-5.2 12.034 0 18.051 6.679 18.051 20.038v37.784z" fill="none" stroke="#6086a1" stroke-width="1.55556111" stroke-miterlimit="3.864"/><path d="M303.75 326.642v-61.8h-6.273v11.013c-6.73-7.954-15.144-11.932-25.24-11.932-9.178 0-16.929 3.162-23.252 9.484-6.221 6.222-9.33 13.921-9.33 23.1 0 9.177 3.161 16.928 9.484 23.25 6.22 6.222 13.92 9.332 23.098 9.332 10.198 0 18.611-3.977 25.24-11.932v9.332c0 7.852-2.193 13.97-6.577 18.356-4.284 4.385-10.352 6.578-18.204 6.578-5.813 0-10.81-.969-14.99-2.907-5.305-2.447-8.517-6.17-9.638-11.167h-6.272c3.365 13.564 13.665 20.346 30.9 20.346 9.28 0 16.776-2.856 22.487-8.567 5.71-5.71 8.566-13.206 8.566-22.486zm-5.049-30.136c0 7.343-2.601 13.615-7.801 18.815-5.1 5.1-11.321 7.65-18.663 7.65-7.241 0-13.461-2.601-18.662-7.802-5.202-5.201-7.802-11.422-7.802-18.663 0-7.342 2.6-13.614 7.802-18.815 5.098-5.1 11.32-7.649 18.662-7.649 7.24 0 13.462 2.6 18.663 7.802 5.2 5.2 7.801 11.422 7.801 18.662" fill="#6086a1" fill-rule="evenodd"/><path d="M303.75 326.642v-61.8h-6.273v11.013c-6.73-7.954-15.144-11.932-25.24-11.932-9.178 0-16.929 3.162-23.252 9.484-6.221 6.222-9.33 13.921-9.33 23.1 0 9.177 3.161 16.928 9.484 23.25 6.22 6.222 13.92 9.332 23.098 9.332 10.198 0 18.611-3.977 25.24-11.932v9.332c0 7.852-2.193 13.97-6.577 18.356-4.284 4.385-10.352 6.578-18.204 6.578-5.813 0-10.81-.969-14.99-2.907-5.305-2.447-8.517-6.17-9.638-11.167h-6.272c3.365 13.564 13.665 20.346 30.9 20.346 9.28 0 16.776-2.856 22.487-8.567 5.71-5.71 8.566-13.206 8.566-22.486z" fill="none" stroke="#6086a1" stroke-width="1.55556111" stroke-miterlimit="3.864"/><path d="M298.701 296.506c0 7.343-2.601 13.615-7.801 18.815-5.1 5.1-11.321 7.65-18.663 7.65-7.241 0-13.461-2.601-18.662-7.802-5.202-5.201-7.802-11.422-7.802-18.663 0-7.342 2.6-13.614 7.802-18.815 5.098-5.1 11.32-7.649 18.662-7.649 7.24 0 13.462 2.6 18.663 7.802 5.2 5.2 7.801 11.422 7.801 18.662z" fill="none" stroke="#6086a1" stroke-width="1.55556111" stroke-miterlimit="3.864"/><path d="M325.133 323.888c-.816-3.365-2.498-5.048-5.048-5.048-3.365.612-5.048 2.295-5.048 5.048.103 1.53.612 2.754 1.53 3.671 1.224.918 2.397 1.377 3.518 1.377 3.366 0 5.048-1.682 5.048-5.048" fill="#6086a1"/><path d="M325.133 323.888c-.816-3.365-2.498-5.048-5.048-5.048-3.365.612-5.048 2.295-5.048 5.048.103 1.53.612 2.754 1.53 3.671 1.224.918 2.397 1.377 3.518 1.377 3.366 0 5.048-1.682 5.048-5.048z" fill="none" stroke="#6086a1" stroke-width="1.55556111" stroke-miterlimit="3.864"/><path d="M343.59 1.14s2.994 4.352 8.16 6.255c5.169 1.905 10.066 1.224 13.602 2.857 3.536 1.632 3.943 5.984 3.943 5.984s5.169 2.992 5.712 7.208c.545 4.216-2.855 8.16-2.855 8.16s2.176 8.432 2.448 9.792c.272 1.36-1.36 4.352-1.496 4.896-.137.544.815 14.552 1.088 16.456.272 1.904 1.903 6.8 1.768 8.024-.136 1.224-1.088 2.992-1.632 4.216-.544 1.224-2.448 4.624-4.352 4.76-1.904.136-6.257-.408-7.073-1.088-.815-.68-2.312-2.856-2.584-4.624-.271-1.768 0-3.944 0-3.944l-1.904-5.168s-2.992-2.312-4.215-3.808c-1.224-1.496-2.176-2.992-2.176-2.992s-.817 13.056-.545 16.048c.272 2.992 1.088 8.024 1.088 8.024s7.072 11.288 8.16 14.69c1.089 3.398.137 12.92.137 12.92s8.567 2.04 10.2 2.31c1.63.272 3.672 1.09 5.03 2.312 1.362 1.224 4.354 4.488 4.625 5.985.273 1.496-.271 5.439-.815 6.8-.544 1.36-1.088 8.432-1.088 10.2 0 1.768-.273 4.216-.68 5.576-.408 1.36-1.633 3.672-1.633 3.672s0 3.536-.135 5.032c-.137 1.496-2.584 7.752-4.216 8.432-1.633.68-6.937-3.4-7.345-8.024-.407-4.624.136-6.12.136-6.12l2.176-1.496s-.543-1.632-.543-3.264 1.088-3.944 1.088-3.944l2.855-8.568s-1.224-2.312-1.903-3.4c-.68-1.088-1.225-2.721-1.225-2.721s-6.664 1.224-9.656 1.633c-2.992.407-8.704 1.224-8.704 1.224s2.041 4.352 2.72 5.712c.68 1.359.273 3.944-.136 5.168-.408 1.224-2.72 3.672-3.127 4.488-.41.816-5.985 10.336-6.393 11.152-.408.816-1.632 4.488-2.856 5.576-1.224 1.088-12.104 6.12-13.6 5.848-1.496-.272-2.992-5.984-1.088-9.656 1.904-3.672 3.264-4.488 4.216-4.76.952-.272 2.312-.136 2.312-.136l.408-2.856c.136-.952.816-1.768.816-1.768s.952.544 1.768.272c.816-.272 5.576-6.392 5.576-6.392s-1.088-2.992-1.768-4.08c-.68-1.088-2.584-3.944-2.584-3.944s-11.152 3.672-12.512 4.488c-1.36.816-5.848 1.632-7.072 1.359-1.224-.27-4.352-3.4-4.352-3.4s-16.184-.27-18.224-.27c-2.04 0-7.208.135-7.208.135s-.952 12.92.272 16.728c1.224 3.808 6.12 9.928 8.296 11.968 2.176 2.04 10.2 8.84 11.696 11.016 1.496 2.176 2.04 5.168 2.448 6.12.408.952 2.312 6.664 2.448 8.024.136 1.36-.68 3.4-2.312 4.08-1.632.68-10.336-5.848-10.744-6.8-.408-.952-.272-2.72-.272-2.72v-1.36s-3.536-.544-3.536-1.496 0-6.528-.408-7.752c-.408-1.224-7.072-6.256-8.84-7.208-1.768-.952-4.624-2.312-4.624-2.312s1.36 15.096 2.312 19.04c.952 3.944 3.264 9.248 4.488 10.744 1.224 1.496 5.712 2.992 7.208 3.808 1.496.816 3.536 2.584 3.944 3.672.408 1.088 2.584 4.76 1.632 5.44-.952.68-8.704.544-10.336-.544-1.632-1.088-2.992-.814-3.128-1.632-.136-.816-.68-2.448-.68-2.448s-2.584.816-3.672 1.09c-1.088.27-2.856-2.45-3.128-4.354-.272-1.904-1.088-10.88-1.496-12.648-.408-1.768-3.128-11.424-3.944-13.192-.816-1.768-6.256-6.936-7.072-9.112-.818-2.176-.408-8.296-.544-9.928-.136-1.632-.68-8.16-2.72-10.608-2.04-2.448-10.744-8.432-13.464-14.824-2.72-6.392-4.49-13.873-4.49-13.873s.408 13.873-.27 16.865c-.682 2.992-3.672 8.84-3.672 8.84s3.4 16.048 1.36 22.984c-2.04 6.936-9.522 13.056-15.642 13.192-6.12.136-12.92-8.296-14.28-11.968-1.36-3.672-1.496-7.616-1.496-7.616s1.768 5.032 6.392 8.976c4.624 3.944 9.112 2.584 9.112 2.584s-5.712-1.36-9.656-9.792c-3.944-8.432-2.584-9.792-2.584-9.792s6.256 10.472 11.016 7.072c4.762-3.4 7.89-10.336 6.12-14.96-1.768-4.624-4.76-13.736-3.808-18.36.952-4.625 5.168-8.841 5.168-8.841s-2.992 3.13-6.256.273c-3.262-2.857-3.128-4.217-3.128-4.217s3.264 4.353 7.072 2.041c3.808-2.312 7.752-9.657 12.106-12.105 4.352-2.448 5.44-1.224 5.44-1.224s3.672-6.528 10.606-10.608c6.938-4.08 21.354-2.04 24.618-2.04 3.264 0 8.16-.544 8.16-.544s-6.387-2.72-7.203-9.384c-.816-6.664 2.992-11.288 2.992-11.288s-.472 3.645 1.768 8.84c1.37 3.177 4.152 2.713 4.152 2.713s-5.79-4.345-5.11-11.553c.68-7.208 3.673-11.696 3.673-11.696s-1.224 5.168 3.672 7.072 7.888-1.088 7.888-1.088-7.344-2.584-8.296-6.392c-.952-3.808 0-6.528 0-6.528s2.312 5.304 7.344 3.944c5.032-1.36 9.656-8.568 9.656-8.568s-5.304-.272-7.208-4.624c-1.904-4.352-.544-5.576-.544-5.576s.544 6.8 6.8 4.624 12.376-11.696 14.824-15.368c2.448-3.672 7.616-3.264 7.616-3.264s-2.04-.816-3.808-5.305c-1.768-4.488-1.088-6.119-1.088-6.119s2.584 7.616 11.016 8.16c8.432.544 8.568-1.088 8.568-1.088s-2.312-1.632-3.808-4.49c-1.496-2.854-.952-3.942-.952-3.942" fill="#bdbcbc" fill-rule="evenodd"/><path d="M390.955 328.171V289.47c0-17.031-8.312-25.547-24.935-25.547-8.77 0-15.043 3.11-18.815 9.332V214.82h-6.272v113.198h6.272V286.87c0-5.1 1.886-9.178 5.659-12.238 3.672-3.06 8.057-4.589 13.156-4.589 12.441 0 18.663 6.68 18.663 20.04v38.09h6.272" fill="#444142"/><path d="M390.955 328.171V289.47c0-17.031-8.312-25.547-24.935-25.547-8.77 0-15.043 3.11-18.815 9.332V214.82h-6.272v113.198h6.272V286.87c0-5.1 1.886-9.178 5.659-12.238 3.672-3.06 8.057-4.589 13.156-4.589 12.441 0 18.663 6.68 18.663 20.04v38.09z" fill="none" stroke="#444142" stroke-width="1.55556111" stroke-miterlimit="3.864"/><path d="M469.785 296.506c0-9.178-3.161-16.928-9.482-23.251-6.324-6.323-14.024-9.485-23.1-9.485-9.178 0-16.878 3.213-23.098 9.637-6.324 6.323-9.485 14.023-9.485 23.1 0 9.177 3.161 16.928 9.485 23.25 6.22 6.222 13.92 9.332 23.098 9.332 9.178 0 16.929-3.161 23.252-9.484 6.221-6.221 9.33-13.92 9.33-23.099zm-6.118 0c0 7.343-2.6 13.615-7.802 18.815-5.098 5.1-11.32 7.65-18.662 7.65-7.24 0-13.462-2.601-18.663-7.802-5.2-5.201-7.801-11.422-7.801-18.663 0-7.139 2.652-13.36 7.954-18.662 5.202-5.303 11.371-7.955 18.51-7.955 7.445 0 13.716 2.6 18.816 7.802 5.098 5.099 7.648 11.371 7.648 18.815" fill="#444142" fill-rule="evenodd"/><path d="M469.785 296.506c0-9.178-3.161-16.928-9.482-23.251-6.324-6.323-14.024-9.485-23.1-9.485-9.178 0-16.878 3.213-23.098 9.637-6.324 6.323-9.485 14.023-9.485 23.1 0 9.177 3.161 16.928 9.485 23.25 6.22 6.222 13.92 9.332 23.098 9.332 9.178 0 16.929-3.161 23.252-9.484 6.221-6.221 9.33-13.92 9.33-23.099z" fill="none" stroke="#444142" stroke-width="1.55556111" stroke-miterlimit="3.864"/><path d="M463.667 296.506c0 7.343-2.6 13.615-7.802 18.815-5.098 5.1-11.32 7.65-18.662 7.65-7.24 0-13.462-2.601-18.663-7.802-5.2-5.201-7.801-11.422-7.801-18.663 0-7.139 2.652-13.36 7.954-18.662 5.202-5.303 11.371-7.955 18.51-7.955 7.445 0 13.716 2.6 18.816 7.802 5.098 5.099 7.648 11.371 7.648 18.815z" fill="none" stroke="#444142" stroke-width="1.55556111" stroke-miterlimit="3.864"/><path d="M518.875 268.971c-2.55-1.836-4.844-3.11-6.884-3.824s-4.64-1.07-7.802-1.07c-2.549 0-4.894.968-7.037 2.906-2.141 1.937-3.875 4.079-5.2 6.424v-8.566h-6.272v63.177h6.272V286.41c0-1.631.33-3.416.993-5.354.664-1.938 1.556-3.697 2.678-5.277a16.39 16.39 0 013.977-3.977c1.53-1.071 3.161-1.607 4.895-1.607 2.04 0 3.977.357 5.813 1.07a21.85 21.85 0 015.201 2.907l3.366-5.2" fill="#444142"/><path d="M518.875 268.971c-2.55-1.836-4.844-3.11-6.884-3.824s-4.64-1.07-7.802-1.07c-2.549 0-4.894.968-7.037 2.906-2.141 1.937-3.875 4.079-5.2 6.424v-8.566h-6.272v63.177h6.272V286.41c0-1.631.33-3.416.993-5.354.664-1.938 1.556-3.697 2.678-5.277a16.39 16.39 0 013.977-3.977c1.53-1.071 3.161-1.607 4.895-1.607 2.04 0 3.977.357 5.813 1.07a21.85 21.85 0 015.201 2.907z" fill="none" stroke="#444142" stroke-width="1.55556111" stroke-miterlimit="3.864"/><path d="M563.444 310.732c0-5.71-2.193-10.249-6.577-13.614-1.123-.816-2.806-1.76-5.05-2.83-2.242-1.07-5.098-2.218-8.565-3.442-3.977-1.326-6.884-2.702-8.72-4.13-2.244-1.836-3.365-4.181-3.365-7.037 0-6.424 3.672-9.637 11.014-9.637 5.404 0 9.84 1.734 13.308 5.201l4.59-3.977c-4.895-4.895-10.862-7.343-17.898-7.343-5.1 0-9.23 1.581-12.39 4.743-3.264 3.059-4.896 6.73-4.896 11.013 0 4.998 1.632 8.822 4.896 11.473 2.242 1.836 5.914 3.671 11.013 5.507a253.733 253.733 0 016.96 2.677c1.887.765 3.34 1.453 4.36 2.065 3.365 2.652 5.048 5.763 5.048 9.331 0 8.159-4.793 12.238-14.379 12.238-4.385 0-7.853-.968-10.402-2.906-2.448-1.734-4.539-4.182-6.272-7.343l-5.355 3.212c4.896 8.873 12.239 13.309 22.03 13.309 5.71 0 10.605-1.734 14.685-5.2 3.976-3.367 5.965-7.802 5.965-13.31" fill="#444142"/><path d="M563.444 310.732c0-5.71-2.193-10.249-6.577-13.614-1.123-.816-2.806-1.76-5.05-2.83-2.242-1.07-5.098-2.218-8.565-3.442-3.977-1.326-6.884-2.702-8.72-4.13-2.244-1.836-3.365-4.181-3.365-7.037 0-6.424 3.672-9.637 11.014-9.637 5.404 0 9.84 1.734 13.308 5.201l4.59-3.977c-4.895-4.895-10.862-7.343-17.898-7.343-5.1 0-9.23 1.581-12.39 4.743-3.264 3.059-4.896 6.73-4.896 11.013 0 4.998 1.632 8.822 4.896 11.473 2.242 1.836 5.914 3.671 11.013 5.507a253.733 253.733 0 016.96 2.677c1.887.765 3.34 1.453 4.36 2.065 3.365 2.652 5.048 5.763 5.048 9.331 0 8.159-4.793 12.238-14.379 12.238-4.385 0-7.853-.968-10.402-2.906-2.448-1.734-4.539-4.182-6.272-7.343l-5.355 3.212c4.896 8.873 12.239 13.309 22.03 13.309 5.71 0 10.605-1.734 14.685-5.2 3.976-3.367 5.965-7.802 5.965-13.31z" fill="none" stroke="#444142" stroke-width="1.55556111" stroke-miterlimit="3.864"/><path d="M637.504 295.13c0-9.281-3.11-16.827-9.33-22.64-6.12-5.813-13.87-8.72-23.253-8.72-9.484 0-17.337 3.11-23.557 9.332-6.119 6.118-9.179 13.92-9.179 23.404 0 9.382 3.111 17.184 9.332 23.405 6.119 6.22 13.92 9.33 23.404 9.33 3.978 0 7.547-.51 10.708-1.529 8.26-2.651 14.379-7.75 18.356-15.297l-5.658-2.6c-3.468 5.608-7.395 9.33-11.78 11.166-3.467 1.428-7.342 2.142-11.626 2.142-8.362 0-14.94-2.549-19.733-7.648-4.59-4.997-6.884-11.78-6.884-20.345zm-7.036-5.966h-51.247c4.08-12.85 12.647-19.275 25.7-19.275 6.222 0 11.728 1.734 16.522 5.201 4.996 3.57 8.005 8.261 9.025 14.074" fill="#444142" fill-rule="evenodd"/><path d="M637.504 295.13c0-9.281-3.11-16.827-9.33-22.64-6.12-5.813-13.87-8.72-23.253-8.72-9.484 0-17.337 3.11-23.557 9.332-6.119 6.118-9.179 13.92-9.179 23.404 0 9.382 3.111 17.184 9.332 23.405 6.119 6.22 13.92 9.33 23.404 9.33 3.978 0 7.547-.51 10.708-1.529 8.26-2.651 14.379-7.75 18.356-15.297l-5.658-2.6c-3.468 5.608-7.395 9.33-11.78 11.166-3.467 1.428-7.342 2.142-11.626 2.142-8.362 0-14.94-2.549-19.733-7.648-4.59-4.997-6.884-11.78-6.884-20.345z" fill="none" stroke="#444142" stroke-width="1.55556111" stroke-miterlimit="3.864"/><path d="M630.468 289.164h-51.247c4.08-12.85 12.647-19.275 25.7-19.275 6.222 0 11.728 1.734 16.522 5.201 4.996 3.57 8.005 8.261 9.025 14.074z" fill="none" stroke="#444142" stroke-width="1.55556111" stroke-miterlimit="3.864"/><path d="M202.25 34.99s8.462 8.766 21.158 8.615c12.695-.15 16.17-2.418 22.67.151 6.5 2.57 6.65 8.01 6.65 9.068 0 1.059-.907 2.872-.907 2.872s8.162 8.161 8.918 9.673c.756 1.511 1.209 4.383 2.418 5.743 1.21 1.36 14.811 14.359 15.567 15.567.756 1.209 1.36 4.232 1.512 5.593.15 1.359-1.059 5.29-1.815 6.499-.754 1.208-5.742 4.232-8.161 4.08-2.417-.151-5.139-4.686-5.139-4.686l-10.428-5.289s-5.138-.303-8.161-.453c-3.023-.151-7.557-2.267-7.557-2.267s-6.65 10.881-7.103 16.02c-.453 5.139 1.512 12.09 2.267 13.753.756 1.663 3.173 4.383 3.628 9.371.452 4.988 0 10.127 0 10.127s14.961.453 16.926.453c1.964 0 7.104.755 8.918 2.115 1.813 1.36 4.533 5.441 4.836 7.104.302 1.662.756 5.289.756 8.313 0 3.023 1.964 12.845 1.209 15.113-.756 2.267-3.476 4.383-4.988 6.046-1.512 1.662-8.01 11.033-9.673 10.58-1.662-.454-1.964-14.208-1.058-16.626.907-2.418 3.476-2.268 3.476-2.268s-2.418-1.813-2.72-3.626c-.302-1.814-.152-2.267-.152-2.267s2.872.303 3.93-.453c1.058-.756.908-6.348.908-6.348s-3.023-2.72-3.478-3.628c-.452-.907-1.813-2.419-1.813-2.419s-19.95 7.86-22.972 8.767c-3.023.906-5.744 1.512-8.163.906-2.417-.604-6.8-4.382-6.8-4.382s-13.905 4.382-16.322 6.65c-2.419 2.267-11.336 15.415-11.94 16.474-.606 1.058-3.175 7.86-5.29 9.974-2.117 2.116-6.802 6.348-6.802 6.348l-4.684 6.952s3.022 1.512 3.778 2.268c.755.755 10.428 8.162 10.73 9.975.302 1.813-7.859 1.512-11.335 1.36-3.476-.15-7.104-1.51-7.104-1.51l-1.057-2.873-1.21-.756s-4.08 3.023-7.405 5.291c-3.325 2.267-8.917 4.383-12.544 5.743-3.628 1.36-6.197 1.661-6.348 0-.152-1.663 5.29-11.639 6.801-12.847 1.511-1.21 4.684-.907 4.684-.907s.303-1.361.908-2.721c.604-1.36 1.058-1.661 1.058-1.661s.756 1.51 2.116 1.36c1.36-.152 3.778-1.21 3.778-1.21s-9.974-10.277-12.242-11.637c-2.267-1.361-8.463-5.895-10.126-6.65-1.662-.757-6.348-3.627-7.708-5.743-1.36-2.116-2.72-8.918-4.534-11.79-1.814-2.87-6.499-8.916-7.406-9.672-.907-.756-3.476-2.569-3.476-2.569s-8.161 1.36-14.51 5.743c-6.347 4.382-12.09 9.824-13.903 11.789-1.814 1.964-6.65 6.801-8.615 8.312-1.965 1.512-6.197 6.348-8.464 9.37-2.267 3.023-11.033 13.3-13.149 14.963-2.116 1.663-11.033 2.116-12.998 2.267-1.965.152-10.882 1.512-10.126-1.057.756-2.57 7.406-8.464 9.672-9.674 2.268-1.209 3.93-1.057 3.93-1.057h2.72v-2.57c0-1.662.454-2.72.454-2.72s3.628 1.965 6.046 1.058 9.824-10.127 11.184-12.243c1.36-2.116 3.174-5.44 3.174-5.44s-.151-8.766 1.662-11.033c1.814-2.268 6.348-5.744 7.103-7.557.756-1.814 1.663-13.3 2.116-18.136.454-4.838 1.21-8.615 1.814-9.824.605-1.21 1.663-2.872 1.663-2.872s-5.139 6.498-9.22 8.464c-4.08 1.964-12.696 3.929-12.696 3.929s-4.08 10.73-11.183 16.625c-7.104 5.895-14.51 5.592-25.543 8.918-11.032 3.325-15.869 6.045-17.984 8.312-2.117 2.266-5.593 7.858-5.593 7.858s3.174-7.858 5.744-11.788c2.569-3.929 4.533-6.65 6.196-8.01 1.662-1.36 7.557-4.686 7.557-4.686s-8.01 1.21-12.696 5.291c-4.685 4.08-5.894 7.556-5.894 7.556s1.058-6.801 5.29-10.58c4.231-3.779 11.486-5.59 11.486-5.59s-4.383-.455-8.161-.606c-3.778-.152-6.046-1.965-6.046-1.965s10.882 1.662 19.8-2.267c8.916-3.93 12.846-6.196 12.846-6.196s-5.743.907-10.277-.907c-4.535-1.814-6.197-4.837-6.197-4.837s4.836 1.361 10.428.152c5.593-1.21 9.975-3.325 9.975-3.325s-6.196.453-9.672-1.059c-3.477-1.51-4.383-3.627-4.383-3.627s6.348 3.93 13.149 2.268c6.8-1.664 9.673-7.709 14.055-10.126C58.366 117.36 65.621 116 65.621 116s-3.174-1.21-5.592-3.476c-2.419-2.267-2.872-4.081-2.872-4.081s4.534 5.592 12.091 4.382c7.557-1.209 10.58-3.476 15.114-3.022 4.534.454 8.161 2.418 8.161 2.418s5.744-6.801 18.137-9.672c12.393-2.872 22.368 1.812 32.947 1.812 10.58 0 15.72-1.208 16.626-1.661a43.31 43.31 0 011.964-.907s-6.197.454-11.033.151c-4.836-.303-9.521-3.476-9.521-3.476s3.628.756 8.161-.303c4.535-1.057 6.952-4.08 6.952-4.08s-7.103.755-12.241.454c-5.139-.303-8.314-3.326-8.314-3.326s6.198 1.814 12.546-.906c6.348-2.722 13.904-12.394 17.834-16.474 3.928-4.081 5.743-5.29 7.404-6.197 1.664-.907 3.931-1.36 3.931-1.36s-5.29.755-10.428 0c-5.14-.756-10.127-4.685-10.127-4.685s5.895 2.418 14.51 1.36c8.614-1.058 12.544-3.627 12.544-3.627s-3.779-1.361-7.104-3.325c-3.326-1.966-4.08-4.838-4.08-4.838s6.196 4.687 14.056 2.872c7.858-1.813 8.614-4.685 13.148-6.196 4.534-1.512 11.94-.906 11.94-.906s-5.139-3.326-7.103-6.046c-1.965-2.721-3.023-5.894-3.023-5.894" fill="#5a5758" fill-rule="evenodd"/><path d="M140.736 154.54s1.512 16.624 2.57 19.799c1.058 3.173 6.045 9.824 7.707 11.486 1.663 1.663 13.148 12.091 13.148 12.091s5.594-8.464 5.896-9.37c.302-.907 1.511-5.44 2.267-7.103.755-1.663 2.72-4.082 2.72-4.082s1.663-14.056 1.663-14.66c0-.605-3.628-4.837-3.628-4.837s-8.918-1.813-16.172-2.417c-7.254-.604-16.171-.907-16.171-.907" fill="#fff"/></svg>