<?xml version="1.0" encoding="UTF-8" standalone="no"?>
<svg
   xmlns:dc="http://purl.org/dc/elements/1.1/"
   xmlns:cc="http://creativecommons.org/ns#"
   xmlns:rdf="http://www.w3.org/1999/02/22-rdf-syntax-ns#"
   xmlns:svg="http://www.w3.org/2000/svg"
   xmlns="http://www.w3.org/2000/svg"
   xmlns:sodipodi="http://sodipodi.sourceforge.net/DTD/sodipodi-0.dtd"
   xmlns:inkscape="http://www.inkscape.org/namespaces/inkscape"
   inkscape:version="1.0 (4035a4fb49, 2020-05-01)"
   sodipodi:docname="LogoToelter.svg"
   id="svg60"
   version="1.1"
   width="277.61258"
   height="192.73691">
  <metadata
     id="metadata66">
    <rdf:RDF>
      <cc:Work
         rdf:about="">
        <dc:format>image/svg+xml</dc:format>
        <dc:type
           rdf:resource="http://purl.org/dc/dcmitype/StillImage" />
        <dc:title></dc:title>
      </cc:Work>
    </rdf:RDF>
  </metadata>
  <defs
     id="defs64" />
  <sodipodi:namedview
     inkscape:current-layer="svg60"
     inkscape:window-maximized="0"
     inkscape:window-y="0"
     inkscape:window-x="0"
     inkscape:cy="67.019962"
     inkscape:cx="-433.6519"
     inkscape:zoom="0.78361592"
     showgrid="false"
     id="namedview62"
     inkscape:window-height="1117"
     inkscape:window-width="2028"
     inkscape:pageshadow="2"
     inkscape:pageopacity="0"
     guidetolerance="10"
     gridtolerance="10"
     objecttolerance="10"
     borderopacity="1"
     bordercolor="#666666"
     pagecolor="#ffffff" />
  <path
     id="path2"
     fill-rule="evenodd"
     fill="#444142"
     d="m 13.382577,29.666 c 0,0 -5.0599996,-7.36 2.53,-14.489 7.588,-7.129 16.557,-1.84 22.307,-3.449 5.748,-1.61 7.588,-5.29 8.508,-6.899 0.92,-1.609 0.92,-4.138 0.92,-4.138 0,0 1.15,5.058 0.46,7.588 -0.69,2.529 -4.83,6.438 -4.83,6.438 0,0 5.06,0 8.739,-4.138 3.68,-4.14 3.68,-10.579 3.68,-10.579 0,0 3.45,4.599 3.219,8.97 -0.23,4.367 -3.45,9.657 -3.45,9.657 0,0 2.3,-3.45 10.35,-3.91 8.048,-0.46 10.808,0.92 15.177,-0.46 4.37,-1.38 8.508,-6.898 8.508,-6.898 0,0 -0.919,5.518 -2.99,8.278 -2.069,2.76 -4.138,4.83 -6.209,5.979 -2.069,1.15 -3.449,1.15 -3.449,1.15 0,0 8.51,0.69 11.959,-1.38 3.449,-2.07 6.438,-7.818 6.438,-7.818 0,0 0.23,4.83 -2.069,8.968 -2.3,4.14 -7.359,7.819 -7.359,7.819 0,0 4.599,0.46 8.048,-2.299 3.45,-2.76 6.210003,-10.119 6.210003,-10.119 0,0 1.84,7.359 0.23,13.108 -1.610003,5.75 -4.830003,11.728 -6.209003,13.108 -1.38,1.38 -3.91,2.759 -3.91,2.759 0,0 8.509,-2.759 11.498003,-7.588 2.99,-4.83 2.99,-13.799 2.99,-13.799 0,0 2.53,8.739 0.69,14.028 -1.84,5.29 -6.899003,10.119 -6.899003,10.119 0,0 4.139003,-0.23 7.359003,-4.139 3.22,-3.909 3.679,-9.66 3.679,-9.66 0,0 2.3,9.43 0.92,15.41 -1.379,5.978 -4.83,11.728 -5.979,12.877 -1.15,1.15 -2.07,1.38 -2.07,1.38 0,0 3.22,0 6.21,-3.45 2.99,-3.45 3.219,-11.038 3.219,-11.038 0,0 2.989,6.439 0.92,11.499 -2.07,5.058 -4.139,7.588 -5.29,8.278 -1.149,0.69 -3.909,1.38 -3.909,1.38 0,0 11.728,1.61 21.387,1.61 9.658,0 23.226,-2.3 29.896,-1.38 6.668,0.92 11.957,3.909 14.717,5.518 2.76,1.611 4.6,3.22 4.6,3.22 0,0 2.299,-2.989 9.657,-2.76 7.36,0.231 13.339,5.06 19.548,8.51 6.208,3.449 9.428,4.829 14.487,3.218 5.06,-1.609 6.67,-6.438 6.67,-6.438 0,0 0.46,4.14 -0.69,6.438 -1.15,2.3 -5.75,4.83 -5.75,4.83 0,0 2.99,0.92 5.75,-0.92 2.76,-1.839 2.299,-5.748 2.299,-5.748 0,0 2.989,4.369 1.84,7.358 -1.15,2.99 -3.91,5.059 -3.91,5.059 0,0 5.29,0.23 11.959,2.53 6.67,2.3 6.67,3.449 10.348,2.76 3.68,-0.69 5.979,-4.37 5.979,-4.37 0,0 -0.23,3.91 -1.379,6.439 -1.15,2.53 -7.13,5.289 -7.13,5.289 0,0 2.99,4.37 8.28,4.37 5.289,0 11.267,-5.06 11.267,-5.06 0,0 0.691,3.91 -1.149,7.589 -1.84,3.68 -6.67,6.669 -6.67,6.669 0,0 3.68,0.69 7.13,-1.84 3.45,-2.53 2.99,-6.899 2.99,-6.899 0,0 1.38,3.45 0.92,5.06 -0.46,1.61 -1.84,3.679 -1.84,3.679 0,0 2.069,0 6.209,1.84 4.138,1.84 5.749,3.679 5.749,3.679 0,0 -5.06,-2.53 -8.74,-2.299 -3.679,0.23 -7.359,3.219 -7.359,3.219 0,0 3.22,-0.23 9.43,2.3 6.209,2.529 7.589,9.429 7.589,9.429 0,0 -0.23,-4.83 -9.2,-6.67 -8.968,-1.84 -11.267,-2.069 -16.557,-0.69 -5.288,1.38 -11.268,2.07 -16.787,-0.69 -5.519,-2.76 -10.119,-11.498 -10.119,-11.498 0,0 -6.898,-1.379 -12.648,-6.439 -5.749,-5.058 -6.438,-10.348 -6.438,-10.348 0,0 -8.279,-2.07 -14.718,-8.509 -6.44,-6.439 -10.118,-9.888 -10.118,-9.888 0,0 3.909,9.199 4.369,15.177 0.46,5.98 -1.84,12.648 0.69,18.168 2.529,5.519 6.669,6.668 8.738,10.119 2.07,3.45 2.3,7.588 3.45,9.657 1.15,2.071 9.658,11.268 12.647,13.108 2.991,1.84 5.519,1.38 5.979,2.3 0.46,0.92 0.69,3.22 0.69,3.22 0,0 1.61,-1.38 3.22,-0.69 1.61,0.69 12.418,8.509 10.578,9.658 -1.839,1.15 -10.348,1.61 -12.417,1.38 -2.071,-0.23 -7.359,-0.23 -9.199,-1.84 -1.84,-1.609 -10.579,-12.877 -13.108,-15.637 -2.53,-2.76 -20.467,-18.168 -23.916,-20.927 -3.45,-2.76 -14.259,-7.818 -14.259,-7.818 0,0 -10.348,6.208 -13.108,10.808 -2.758,4.598 -3.909,12.877 -5.978,14.257 -2.07,1.38 -10.119,7.36 -14.488,10.81 -4.37,3.449 -8.739,10.117 -9.888,12.417 -1.151,2.3 -1.84,5.06 -3.22,5.289 -1.38,0.23 -3.679,-0.46 -3.679,-0.46 l -0.69,3.45 c 0,0 -4.83,3.22 -8.969003,3.449 -4.14,0.23 -6.898,-1.38 -6.44,-2.76 0.46,-1.38 5.75,-6.898 7.13,-8.508 1.380003,-1.61 3.220003,-2.99 5.520003,-5.29 2.298,-2.298 15.866,-14.488 17.477,-16.326 1.61,-1.84 2.759,-6.67 4.139,-11.73 1.38,-5.058 1.38,-17.017 1.38,-17.017 0,0 -18.627,0 -23.916,0.23 -5.290003,0.23 -8.740003,1.38 -8.740003,1.38 l -2.068,1.84 -1.842,17.707 c 0,0 -0.229,6.439 -0.689,10.348 -0.46,3.91 -1.61,7.59 -1.61,7.59 0,0 -1.149,10.808 -0.92,14.028 0.231,3.218 1.15,8.048 0.691,8.968 -0.46,0.92 -2.3,1.84 -2.3,1.84 l -1.84,-0.69 c 0,0 0.231,3.22 -0.92,3.909 -1.149,0.69 -14.717,1.84 -15.177,-0.23 -0.46,-2.07 3.679,-6.209 5.75,-7.818 2.069,-1.61 3.449,-2.53 5.058,-4.37 1.61,-1.84 0.69,-11.957 0.69,-13.568 0,-1.61 -1.61,-8.279 -1.84,-11.268 -0.23,-2.99 -0.23,-9.199 -0.23,-9.199 0,0 -1.379,-7.818 -2.3,-10.578 -0.92,-2.759 -4.599,-7.128 -4.599,-7.128 l -10.348,-3.45 c 0,0 -4.829,3.91 -7.358,4.368 -2.531,0.46 -29.896,-9.428 -29.896,-9.428 0,0 -0.92,1.61 -1.61,2.53 -0.69,0.92 -1.15,1.84 -1.15,1.84 l 2.76,8.278 c 0,0 1.38,0.46 2.3,0 l 1.838,-0.92 c 0,0 0.691,1.61 0.691,2.76 0,0 1.38,-0.23 2.3,0.231 0.92,0.459 10.808,13.567 7.359,14.027 -3.45,0.46 -11.039,-3.679 -12.879,-3.679 -1.84,0 -7.128,-1.38 -8.508,-3.22 -1.38,-1.84 -1.38,-9.428 -2.3,-12.648 -0.92,-3.22 -2.76,-8.279 -2.3,-11.039 0.46,-2.758 2.07,-5.518 5.29,-6.898 3.22,-1.38 10.807,-0.92 12.878,-0.691 2.07,0.23 8.968,-0.23 8.968,-0.23 0,0 -3.679,-8.278 -3.22,-15.407 0.46,-7.128 4.37,-12.418 4.14,-16.327 -0.23,-3.91 -4.83,-17.937 -4.83,-17.937 0,0 -2.989,1.84 -5.289,2.529 -2.3,0.69 -5.518,1.38 -5.518,1.38 l -5.75,5.29 c 0,0 -0.689,3.68 -1.609,4.829 -0.92,1.149 -8.2799996,1.38 -9.1989996,0.92 -0.92,-0.46 -3.449,-2.07 -4.14,-2.99 -0.689,-0.92 -1.149,-1.61 -2.069,-2.76 -0.92,-1.149 -1.61,-1.61 -1.38,-2.76 0.23,-1.149 8.05,-21.156 8.05,-21.156 0,0 -0.231,-4.829 0.458,-7.129 0.69,-2.3 4.8299996,-8.279 4.8299996,-8.279" />
  <path
     id="path58"
     fill="#ffffff"
     d="m -250.45142,110.216 c 0,0 1.512,16.624 2.57,19.799 1.058,3.173 6.045,9.824 7.707,11.486 1.663,1.663 13.148,12.091 13.148,12.091 0,0 5.594,-8.464 5.896,-9.37 0.302,-0.907 1.511,-5.44 2.267,-7.103 0.755,-1.663 2.72,-4.082 2.72,-4.082 0,0 1.663,-14.056 1.663,-14.66 0,-0.605 -3.628,-4.837 -3.628,-4.837 0,0 -8.918,-1.813 -16.172,-2.417 -7.254,-0.604 -16.171,-0.907 -16.171,-0.907" />
</svg>
